<svg width="178px" height="64px" viewBox="0 0 178 64" version="1.1" xmlns="http://www.w3.org/2000/svg" xmlns:xlink="http://www.w3.org/1999/xlink">
<g id="Page-1" stroke="none" stroke-width="1" fill="none" fill-rule="evenodd">
  <g id="american_express" fill-rule="nonzero">
    <g id="Group" transform="translate(3.684211, 4.368421)" fill="#27ADE4">
      <polygon id="Shape" points="56.9578947 21.7736842 72.6157895 21.7736842 72.6526316 17.6473684 61.6736842 17.6473684 61.6736842 13.6684211 72.3578947 13.6684211 72.3578947 9.61578947 61.6736842 9.61578947 61.6736842 6.00526316 72.6526316 6.00526316 72.6526316 1.87894737 56.9578947 1.87894737"></polygon>
      <path d="M94.7210526,7.36842105 C94.8661688,5.56066994 93.9452478,3.83394299 92.3631579,2.94736842 C90.5896693,2.13275157 88.6321036,1.80225345 86.6894737,1.98947368 L75.8947368,1.98947368 L75.8947368,21.8842105 L80.5736842,21.8842105 L80.5736842,14.5157895 L85.6210526,14.5157895 C87.3157895,14.5157895 88.3473684,14.5157895 89.0473684,15.3631579 C89.718092,16.5341632 89.9774898,17.8960017 89.7842105,19.2315789 L89.7842105,21.7368421 L94.5,21.7368421 L94.5,17.8684211 C94.6630213,16.5883187 94.3905003,15.2905997 93.7263158,14.1842105 C93.1181056,13.4219011 92.3165793,12.8366597 91.4052632,12.4894737 C93.4249642,11.5871771 94.7242475,9.58050628 94.7210526,7.36842105 L94.7210526,7.36842105 Z M88.4210526,10.0210526 C87.7006265,10.3709587 86.8963739,10.5113837 86.1,10.4263158 L80.5736842,10.4263158 L80.5736842,6.00526316 L86.3578947,6.00526316 C87.1135702,5.95010851 87.8714809,6.07642697 88.5684211,6.37368421 C89.2240136,6.7109799 89.6153464,7.40668269 89.5631579,8.14210526 C89.5849241,8.93847982 89.1380186,9.67371136 88.4210526,10.0210526 Z" id="Shape"></path>
      <path d="M40.0105263,15.3631579 L33.8947368,1.87894737 L26.2315789,1.87894737 L26.2315789,20.7052632 L18.4210526,1.87894737 L11.2736842,1.87894737 L2.87368421,21.7736842 L7.99473684,21.7736842 L9.8,17.3526316 L19.5631579,17.3526316 L21.3684211,21.7736842 L30.9105263,21.7736842 L30.9105263,6.15263158 L37.7263158,21.7368421 L41.8526316,21.7368421 L48.6315789,6.18947368 L48.6315789,21.7736842 L53.4578947,21.7736842 L53.4578947,1.87894737 L45.6473684,1.87894737 L40.0105263,15.3631579 Z M11.4578947,13.1894737 L14.7368421,5.26842105 L17.9421053,13.1894737 L11.4578947,13.1894737 Z" id="Shape"></path>
      <rect id="Rectangle-path" x="97.4473684" y="1.87894737" width="4.78947368" height="19.8947368"></rect>
      <path d="M137.568421,1.87894737 L137.568421,20.7052632 L129.610526,1.87894737 L122.573684,1.87894737 L115.978947,17.5 L113.878947,17.5 C112.672564,17.638898 111.461728,17.2796388 110.526316,16.5052632 C109.549267,15.1507287 109.091623,13.4901366 109.236842,11.8263158 C109.115747,10.2335475 109.573627,8.65059063 110.526316,7.36842105 C111.511033,6.43533846 112.867044,6.0014151 114.210526,6.18947368 L118.668421,6.18947368 L118.668421,1.87894737 L114.210526,1.87894737 C111.621754,1.63955457 109.048974,2.47937406 107.1,4.2 C105.251509,6.34946223 104.336557,9.14735839 104.557895,11.9736842 C104.313308,14.7404354 105.21952,17.4857235 107.063158,19.5631579 C108.972816,21.137198 111.408968,21.9273012 113.878947,21.7736842 L119.368421,21.7736842 L121.136842,17.3526316 L130.863158,17.3526316 L132.631579,21.7736842 L142.210526,21.7736842 L142.210526,6.85263158 L151.052632,21.7736842 L157.684211,21.7736842 L157.684211,1.87894737 L152.894737,1.87894737 L152.894737,15.7315789 L144.715789,1.87894737 L137.568421,1.87894737 Z M122.831579,13.1894737 L126.073684,5.26842105 L129.315789,13.1894737 L122.831579,13.1894737 Z" id="Shape"></path>
    </g>
    <path d="M21.5526316,15.9368421 L18.4210526,8.05263158 L15.1421053,15.9368421 L21.5526316,15.9368421 Z M92.1052632,12.7684211 C91.3848371,13.1183271 90.5805845,13.2587522 89.7842105,13.1736842 L84.2578947,13.1736842 L84.2578947,8.78947368 L90.0421053,8.78947368 C90.7977807,8.73431904 91.5556915,8.8606375 92.2526316,9.15789474 C92.9082241,9.49519043 93.299557,10.1908932 93.2473684,10.9263158 C93.3048541,11.682539 92.9352363,12.4075587 92.2894737,12.8052632 L92.1052632,12.7684211 Z M132.815789,15.9736842 L129.684211,8.05263158 L126.442105,15.9736842 L132.815789,15.9736842 Z M57.1421053,24.5210526 L52.3526316,24.5210526 L52.3526316,8.93684211 L45.5368421,24.5210526 L41.4105263,24.5210526 L34.5947368,8.93684211 L34.5947368,24.5210526 L25.0526316,24.5210526 L23.2473684,20.1 L13.4842105,20.1 L11.6789474,24.5210526 L6.55789474,24.5210526 L14.9578947,4.62631579 L22.1052632,4.62631579 L29.9157895,23.4526316 L29.9157895,4.62631579 L37.5789474,4.62631579 L43.7315789,18.1105263 L49.3684211,4.62631579 L57.1789474,4.62631579 L57.1421053,24.5210526 Z M76.3,24.5210526 L60.6421053,24.5210526 L60.6421053,4.62631579 L76.3,4.62631579 L76.3,8.78947368 L65.2473684,8.78947368 L65.2473684,12.4736842 L75.9684211,12.4736842 L75.9684211,16.4526316 L65.3578947,16.4526316 L65.3578947,20.3947368 L76.4105263,20.3947368 L76.3,24.5210526 Z M98.4052632,10.0052632 C98.5293134,12.3232761 97.2103938,14.4775113 95.0894737,15.4210526 C96.0016619,15.7666305 96.8035823,16.3521597 97.4105263,17.1157895 C98.0747108,18.2221786 98.3472318,19.5198976 98.1842105,20.8 L98.1842105,24.5210526 L93.4684211,24.5210526 L93.4684211,22.0157895 C93.6617003,20.6802122 93.4023025,19.3183737 92.7315789,18.1473684 C92.0315789,17.4473684 91,17.3 89.3052632,17.3 L84.2578947,17.3 L84.2578947,24.6684211 L79.5789474,24.6684211 L79.5789474,4.62631579 L90.3736842,4.62631579 C92.3163141,4.43909556 94.2738799,4.76959367 96.0473684,5.58421053 C97.6226533,6.47743305 98.5410675,8.19945969 98.4052632,10.0052632 L98.4052632,10.0052632 Z M105.773684,24.5210526 L100.984211,24.5210526 L100.984211,4.62631579 L105.773684,4.62631579 L105.773684,24.5210526 Z M161.294737,24.5210526 L154.736842,24.5210526 L145.894737,9.6 L145.894737,24.5210526 L136.315789,24.5210526 L134.510526,20.1 L124.784211,20.1 L123.015789,24.5210526 L117.526316,24.5210526 C114.994714,24.7189398 112.485137,23.9264418 110.526316,22.3105263 C108.682678,20.2330919 107.776466,17.4878038 108.021053,14.7210526 C107.799715,11.8947268 108.714667,9.09683065 110.563158,6.94736842 C112.566297,5.16725113 115.232113,4.32329924 117.894737,4.62631579 L122.426316,4.62631579 L122.426316,8.9 L117.894737,8.9 C116.551254,8.71194142 115.195244,9.14586477 114.210526,10.0789474 C113.223013,11.3607202 112.738195,12.9593099 112.847368,14.5736842 C112.758805,16.1970275 113.241057,17.8001898 114.210526,19.1052632 C115.121659,19.8736282 116.302536,20.24514 117.489474,20.1368421 L119.589474,20.1368421 L126.184211,4.47894737 L133.221053,4.47894737 L141.178947,23.3052632 L141.178947,4.62631579 L148.326316,4.62631579 L156.578947,18.4789474 L156.578947,4.62631579 L161.368421,4.62631579 L161.294737,24.5210526 Z M6.55789474,28.4263158 L14.5157895,28.4263158 L16.3210526,24.0052632 L20.3736842,24.0052632 L22.1052632,28.4263158 L37.9473684,28.4263158 L37.9473684,25.0368421 L39.3473684,28.4263158 L47.5263158,28.4263158 L48.9263158,25 L48.9263158,28.4263158 L88.1263158,28.4263158 L88.1263158,21.0578947 L88.9,21.0578947 C89.4157895,21.0578947 89.6,21.0578947 89.6,22.0157895 L89.6,28.4263158 L109.863158,28.4263158 L109.863158,26.7315789 C112.147513,27.8801549 114.674966,28.4614689 117.231579,28.4263158 L125.742105,28.4263158 L127.547368,24.0052632 L131.6,24.0052632 L133.368421,28.4263158 L149.947368,28.4263158 L149.947368,24.2263158 L152.415789,28.4263158 L165.789474,28.4263158 L165.789474,0.684210526 L152.563158,0.684210526 L152.563158,3.96315789 L150.757895,0.684210526 L137.384211,0.684210526 L137.384211,3.96315789 L135.689474,0.684210526 L117.636842,0.684210526 C114.938445,0.559230171 112.252106,1.11677235 109.826316,2.30526316 L109.826316,0.684210526 L97.3736842,0.684210526 L97.3736842,2.30526316 C95.8793998,1.13015017 94.0016808,0.552390469 92.1052632,0.684210526 L46.5315789,0.684210526 L43.4736842,7.83157895 L40.3421053,0.684210526 L26.0105263,0.684210526 L26.0105263,3.96315789 L24.4263158,0.684210526 L12.1947368,0.684210526 L6.52105263,13.8736842 L0,28.4263158 L6.55789474,28.4263158 Z" id="Shape" fill="#2D78BC"></path>
    <path d="M21.5526316,17.5578947 L18.4210526,9.63684211 L15.1421053,17.5578947 L21.5526316,17.5578947 Z M92.1052632,14.3894737 C91.3848371,14.7393797 90.5805845,14.8798048 89.7842105,14.7947368 L84.2578947,14.7947368 L84.2578947,10.4105263 L90.0421053,10.4105263 C90.7977807,10.3553717 91.5556915,10.4816901 92.2526316,10.7789474 C92.9082241,11.1162431 93.299557,11.8119459 93.2473684,12.5473684 C93.3048541,13.3035917 92.9352363,14.0286113 92.2894737,14.4263158 L92.1052632,14.3894737 Z M132.815789,17.5947368 L129.684211,9.63684211 L126.442105,17.5578947 L132.815789,17.5947368 Z M57.1421053,26.1421053 L52.3526316,26.1421053 L52.3526316,10.5578947 L45.5368421,26.1421053 L41.4105263,26.1421053 L34.5947368,10.5578947 L34.5947368,26.1421053 L25.0526316,26.1421053 L23.2473684,21.7210526 L13.4842105,21.7210526 L11.6789474,26.1421053 L6.55789474,26.1421053 L14.9578947,6.24736842 L22.1052632,6.24736842 L29.9157895,25.0736842 L29.9157895,6.24736842 L37.5789474,6.24736842 L43.7315789,19.7315789 L49.3684211,6.24736842 L57.1789474,6.24736842 L57.1421053,26.1421053 Z M76.3,26.1421053 L60.6421053,26.1421053 L60.6421053,6.24736842 L76.3,6.24736842 L76.3,10.4105263 L65.2473684,10.4105263 L65.2473684,14.0947368 L75.9684211,14.0947368 L75.9684211,18.0736842 L65.3578947,18.0736842 L65.3578947,22.0157895 L76.4105263,22.0157895 L76.3,26.1421053 Z M98.4052632,11.6263158 C98.48296,13.9048177 97.1716122,16.0029742 95.0894737,16.9315789 C96.0007899,17.278765 96.8023161,17.8640064 97.4105263,18.6263158 C98.0747108,19.7327049 98.3472318,21.030424 98.1842105,22.3105263 L98.1842105,26.1421053 L93.4684211,26.1421053 L93.4684211,23.6368421 C93.6617003,22.3012649 93.4023025,20.9394263 92.7315789,19.7684211 C92.0315789,19.0684211 91,18.9210526 89.3052632,18.9210526 L84.2578947,18.9210526 L84.2578947,26.2894737 L79.5789474,26.2894737 L79.5789474,6.24736842 L90.3736842,6.24736842 C92.3163141,6.06014819 94.2738799,6.39064631 96.0473684,7.20526316 C97.6685071,8.10865692 98.5957959,9.89079002 98.4052632,11.7368421 L98.4052632,11.6263158 Z M105.773684,26.2526316 L100.984211,26.2526316 L100.984211,6.24736842 L105.773684,6.24736842 L105.773684,26.2526316 Z M161.294737,26.2526316 L154.736842,26.2526316 L145.894737,11.2210526 L145.894737,26.1421053 L136.315789,26.1421053 L134.510526,21.7210526 L124.784211,21.7210526 L123.015789,26.1421053 L117.526316,26.1421053 C114.994267,26.3439121 112.483252,25.55096 110.526316,23.9315789 C108.682678,21.8541446 107.776466,19.1088564 108.021053,16.3421053 C107.799715,13.5157794 108.714667,10.7178833 110.563158,8.56842105 C112.566297,6.78830376 115.232113,5.94435187 117.894737,6.24736842 L122.426316,6.24736842 L122.426316,10.5210526 L117.894737,10.5210526 C116.545463,10.3426643 115.188614,10.7904243 114.210526,11.7368421 C113.223013,13.0186149 112.738195,14.6172046 112.847368,16.2315789 C112.732301,17.8921402 113.215898,19.5389859 114.210526,20.8736842 C115.121659,21.6420492 116.302536,22.0135611 117.489474,21.9052632 L119.589474,21.9052632 L126.184211,6.24736842 L133.221053,6.24736842 L141.178947,25.0736842 L141.178947,6.24736842 L148.326316,6.24736842 L156.578947,20.1 L156.578947,6.24736842 L161.368421,6.24736842 L161.294737,26.2526316 Z M6.52105263,30.1578947 L14.5157895,30.1578947 L16.3210526,25.7368421 L20.3736842,25.7368421 L22.1052632,30.1578947 L37.9473684,30.1578947 L37.9473684,26.6578947 L39.3473684,30.0473684 L47.5263158,30.0473684 L48.9631579,26.4736842 L48.9631579,30.1578947 L88.1263158,30.1578947 L88.1263158,22.7894737 L88.9,22.7894737 C89.4157895,22.7894737 89.6,22.7894737 89.6,23.7473684 L89.6,30.1578947 L109.863158,30.1578947 L109.863158,28.3526316 C112.147018,29.5025822 114.674811,30.0839746 117.231579,30.0473684 L125.742105,30.0473684 L127.547368,25.6263158 L131.6,25.6263158 L133.515789,30.1578947 L149.947368,30.1578947 L149.947368,25.8473684 L152.452632,30.1578947 L165.789474,30.1578947 L165.789474,2.30526316 L152.563158,2.30526316 L152.563158,5.58421053 L150.757895,2.30526316 L137.384211,2.30526316 L137.384211,5.58421053 L135.689474,2.30526316 L117.636842,2.30526316 C114.938445,2.1802828 112.252106,2.73782499 109.826316,3.92631579 L109.826316,2.30526316 L97.3736842,2.30526316 L97.3736842,3.92631579 C95.8810728,2.74801206 94.0020909,2.16986378 92.1052632,2.30526316 L46.5315789,2.30526316 L43.4736842,9.48947368 L40.3421053,2.30526316 L26.0105263,2.30526316 L26.0105263,5.58421053 L24.4263158,2.30526316 L12.1947368,2.30526316 L6.52105263,15.4210526 L0,30.1578947 L6.52105263,30.1578947 Z" id="Shape" fill="#FFFFFF"></path>
    <g id="Group" transform="translate(40.526316, 37.526316)" fill="#27ADE4">
      <path d="M108.463158,10.2789474 L105.921053,10.2789474 C105.298874,10.3117716 104.675696,10.2369903 104.078947,10.0578947 C103.526517,9.81535476 103.144684,9.29741022 103.076392,8.69795933 C103.0081,8.09850844 103.263648,7.50795091 103.747368,7.14736842 C104.320701,6.83372528 104.976993,6.70504064 105.626316,6.77894737 L114.210526,6.77894737 L114.210526,2.50526316 L104.852632,2.50526316 C103.1454,2.25520841 101.414761,2.77053789 100.122407,3.91377378 C98.8300535,5.05700967 98.1074494,6.71185728 98.1473684,8.43684211 C98.1473684,14.7368421 103.636842,14.4421053 108.021053,14.5894737 C108.609046,14.5304876 109.198398,14.687648 109.678947,15.0315789 C110.06439,15.3629178 110.280765,15.8497619 110.268421,16.3578947 C110.269873,16.8455287 110.069905,17.3121208 109.715789,17.6473684 C109.159481,18.0408113 108.47601,18.2116792 107.8,18.1263158 L98.7,18.1263158 L98.7,22.4 L107.836842,22.4 C112.552632,22.4 115.205263,20.4105263 115.205263,16.1368421 C115.339746,14.6034475 114.832886,13.0828681 113.805263,11.9368421 C112.311685,10.7035446 110.392552,10.1079516 108.463158,10.2789474 Z" id="Shape"></path>
      <polygon id="Shape" points="80.2421053 22.3631579 95.9 22.3631579 95.9 18.2368421 84.8842105 18.2368421 84.8842105 14.2947368 95.6052632 14.2947368 95.6052632 10.2052632 84.8842105 10.2052632 84.8842105 6.59473684 95.9 6.59473684 95.9 2.50526316 80.2421053 2.50526316"></polygon>
      <path d="M77.6263158,7.84736842 C77.7478777,6.0254679 76.7984835,4.29929665 75.1947368,3.42631579 C73.4232061,2.64994013 71.4844084,2.33314313 69.5578947,2.50526316 L58.7263158,2.50526316 L58.7263158,22.4 L63.4421053,22.4 L63.4421053,15.0315789 L68.4526316,15.0315789 C70.1842105,15.0315789 71.2157895,15.0315789 71.8789474,15.9157895 C72.5790428,17.0895395 72.85234,18.4690396 72.6526316,19.8210526 L72.6526316,22.3263158 L77.3684211,22.3263158 L77.3684211,18.4210526 C77.5229081,17.1413072 77.2509645,15.8463375 76.5947368,14.7368421 C76.0022863,13.9825835 75.2112642,13.4084546 74.3105263,13.0789474 C76.374136,12.1685083 77.683794,10.102159 77.6263158,7.84736842 Z M71.4736842,10.6473684 C70.7509044,10.9899294 69.9487309,11.1299914 69.1526316,11.0526316 L63.4421053,11.0526316 L63.4421053,6.59473684 L69.2263158,6.59473684 C69.994528,6.52586147 70.7676731,6.65260655 71.4736842,6.96315789 C72.1209303,7.32347333 72.4960625,8.03045317 72.4315789,8.76842105 C72.4651366,9.51965453 72.1013527,10.2332306 71.4736842,10.6473684 Z" id="Shape"></path>
      <path d="M132.078947,11.9 C130.583712,10.7023364 128.680807,10.1341078 126.773684,10.3157895 L124.231579,10.3157895 C123.621534,10.348072 123.010548,10.2732574 122.426316,10.0947368 C121.795558,9.88413058 121.376725,9.28579787 121.394737,8.62105263 C121.34351,8.04934408 121.612965,7.49625286 122.094737,7.18421053 C122.679539,6.86532394 123.349161,6.73655041 124.010526,6.81578947 L132.373684,6.81578947 L132.373684,2.50526316 L123.163158,2.50526316 C121.452599,2.25654478 119.719073,2.77115396 118.421289,3.91292027 C117.123505,5.05468659 116.392262,6.70853516 116.421053,8.43684211 C116.421053,14.7368421 121.910526,14.4421053 126.331579,14.5894737 C126.920122,14.5234031 127.511976,14.6812309 127.989474,15.0315789 C128.379329,15.359618 128.596697,15.8486979 128.578947,16.3578947 C128.5804,16.8455287 128.380432,17.3121208 128.026316,17.6473684 C127.474824,18.0511934 126.787172,18.2231066 126.110526,18.1263158 L117.084211,18.1263158 L117.084211,22.4 L126.147368,22.4 C128.266166,22.5682532 130.36369,21.8779291 131.968421,20.4842105 C134.051374,18.1807778 134.22093,14.7280125 132.373684,12.2315789 L132.078947,11.9 Z" id="Shape"></path>
      <path d="M48.6315789,2.50526316 L33.6368421,2.50526316 L27.6684211,9.02631579 L21.8842105,2.50526316 L3.02105263,2.50526316 L3.02105263,22.4 L21.4421053,22.4 L27.4473684,15.8052632 L33.2315789,22.4 L42.3684211,22.4 L42.3684211,15.6947368 L48.2263158,15.6947368 C52.3157895,15.6947368 56.4052632,14.5526316 56.4052632,9.02631579 C56.4052632,3.5 52.3526316,2.50526316 48.6315789,2.50526316 Z M19.1578947,18.2368421 L7.7,18.2368421 L7.7,14.2578947 L18.0157895,14.2578947 L18.0157895,10.2052632 L7.7,10.2052632 L7.7,6.52105263 L19.4526316,6.52105263 L24.5736842,12.3052632 L19.1578947,18.2368421 Z M37.7631579,20.5578947 L30.3947368,12.4526316 L37.7631579,4.60526316 L37.7631579,20.5578947 Z M48.4842105,11.6421053 L42.5157895,11.6421053 L42.5157895,6.59473684 L48.6315789,6.59473684 C50.3263158,6.59473684 51.5052632,7.29473684 51.5052632,9.02631579 C51.5052632,10.7578947 50.3631579,11.6789474 48.5578947,11.6789474 L48.4842105,11.6421053 Z" id="Shape"></path>
    </g>
    <path d="M176.142105,47.1789474 L176.142105,34.4684211 L164.389474,34.4684211 C162.276336,34.3422916 160.180033,34.9116578 158.421053,36.0894737 L158.421053,34.4684211 L145.673684,34.4684211 C143.652302,34.340139 141.648496,34.9126551 140,36.0894737 L140,34.4684211 L117.121053,34.4684211 L117.121053,36.0894737 C115.197232,34.9786375 113.005131,34.4178674 110.784211,34.4684211 L95.7894737,34.4684211 L95.7894737,36.0894737 C93.8281787,34.8412469 91.5112113,34.271713 89.1947368,34.4684211 L72.2473684,34.4684211 L68.3789474,38.7052632 L64.6947368,34.4684211 L39.3105263,34.4684211 L39.3105263,62.2105263 L64.1421053,62.2105263 L68.1210526,57.9 L71.8052632,62.2105263 L87.0947368,62.2105263 L87.0947368,55.6894737 L88.6052632,55.6894737 C90.8222003,55.8342181 93.0446552,55.5077558 95.1263158,54.7315789 L95.1263158,62.1 L107.726316,62.1 L107.726316,54.7315789 L108.352632,54.7315789 C109.126316,54.7315789 109.2,54.7315789 109.2,55.5421053 L109.2,62.2105263 L147.515789,62.2105263 C149.77106,62.2855023 151.995246,61.668387 153.889474,60.4421053 L153.889474,62.2105263 L166.047368,62.2105263 C168.484633,62.3250546 170.91605,61.8841241 173.157895,60.9210526 L173.157895,60.9210526 C177.742728,57.9499848 179.102859,51.8539754 176.215789,47.2157895 L176.142105,47.1789474 Z M88.9,51.6 L83.0421053,51.6 L83.0421053,58.2684211 L73.9421053,58.2684211 L68.1578947,51.7105263 L62.1526316,58.3052632 L43.7315789,58.3052632 L43.7315789,38.4105263 L62.5947368,38.4105263 L68.1947368,44.8947368 L74.1631579,38.3736842 L89.1578947,38.3736842 C92.8421053,38.3736842 97.0789474,39.4052632 97.0789474,44.9315789 C97.0789474,50.4578947 93.0263158,51.6 88.9,51.6 L88.9,51.6 Z M117.121053,50.7157895 C117.77728,51.8252849 118.049224,53.1202545 117.894737,54.4 L117.894737,58.3421053 L113.215789,58.3421053 L113.215789,55.9473684 C113.415498,54.5953554 113.142201,53.2158553 112.442105,52.0421053 C111.742105,51.3421053 110.710526,51.1578947 109.015789,51.1578947 L104.005263,51.1578947 L104.005263,58.5263158 L99.2894737,58.5263158 L99.2894737,38.6315789 L110.121053,38.6315789 C112.047566,38.4594589 113.986364,38.7762559 115.757895,39.5526316 C117.361641,40.4256124 118.311036,42.1517837 118.189474,43.9736842 C118.277467,46.2549379 116.962808,48.3583924 114.873684,49.2789474 C115.775353,49.6067039 116.56682,50.1811558 117.157895,50.9368421 L117.121053,50.7157895 Z M136.315789,42.5368421 L125.263158,42.5368421 L125.263158,46.2210526 L136.315789,46.2210526 L136.315789,50.2736842 L125.263158,50.2736842 L125.263158,54.2157895 L136.315789,54.2157895 L136.315789,58.3421053 L120.768421,58.3421053 L120.768421,38.4473684 L136.315789,38.4473684 L136.315789,42.5368421 Z M148.252632,58.3052632 L139.226316,58.3052632 L139.226316,54.0315789 L148.326316,54.0315789 C149.002326,54.1169423 149.685797,53.9460745 150.242105,53.5526316 C150.596221,53.2173839 150.796189,52.7507918 150.794737,52.2631579 C150.801953,51.7560617 150.5865,51.2712923 150.205263,50.9368421 C149.724714,50.5929112 149.135362,50.4357507 148.547368,50.4947368 C144.163158,50.4947368 138.673684,50.4947368 138.673684,44.3421053 C138.633765,42.6171204 139.356369,40.9622728 140.648723,39.8190369 C141.941077,38.675801 143.671716,38.1604716 145.378947,38.4105263 L154.736842,38.4105263 L154.736842,42.6473684 L146.189474,42.6473684 C145.540151,42.5734617 144.883859,42.7021463 144.310526,43.0157895 C143.826806,43.376372 143.571258,43.9669295 143.63955,44.5663804 C143.707842,45.1658313 144.089675,45.6837758 144.642105,45.9263158 C145.238854,46.1054114 145.862031,46.1801927 146.484211,46.1473684 L149.026316,46.1473684 C150.945735,45.9558369 152.863726,46.5246205 154.368421,47.7315789 C155.396044,48.8776049 155.902904,50.3981844 155.768421,51.9315789 C155.768421,56.2052632 153.115789,58.1947368 148.4,58.1947368 L148.252632,58.3052632 Z M172.421053,56.3894737 C170.816321,57.7831923 168.718798,58.4735164 166.6,58.3052632 L157.647368,58.3052632 L157.647368,54.0315789 L166.673684,54.0315789 C167.350122,54.1244396 168.036316,53.952891 168.589474,53.5526316 C168.93005,53.211127 169.116367,52.7453346 169.105263,52.2631579 C169.123013,51.7539611 168.905644,51.2648812 168.515789,50.9368421 C168.038292,50.586494 167.446438,50.4286663 166.857895,50.4947368 C162.436842,50.4947368 156.947368,50.4947368 156.947368,44.3421053 C156.918578,42.6137983 157.649821,40.9599497 158.947605,39.8181834 C160.245389,38.6764171 161.978914,38.1618079 163.689474,38.4105263 L172.863158,38.4105263 L172.863158,42.6473684 L164.5,42.6473684 C163.838724,42.5705727 163.169837,42.6992049 162.584211,43.0157895 C162.102438,43.3278318 161.832984,43.880923 161.884211,44.4526316 C161.866199,45.1173768 162.285031,45.7157095 162.915789,45.9263158 C163.500333,46.1033662 164.11106,46.178149 164.721053,46.1473684 L167.263158,46.1473684 C169.170281,45.9656867 171.073186,46.5339153 172.568421,47.7315789 C172.734918,47.8724465 172.883407,48.0333097 173.010526,48.2105263 L173.010526,47.9894737 C174.888285,50.4844435 174.733798,53.9603976 172.642105,56.2789474 L172.421053,56.3894737 Z M59.9789474,42.5368421 L65.1,48.3210526 L59.7210526,54.1421053 L48.2263158,54.1421053 L48.2263158,50.2 L58.5421053,50.2 L58.5421053,46.1473684 L48.2263158,46.1473684 L48.2263158,42.4631579 L59.9789474,42.5368421 Z M71.0315789,48.3947368 L78.4,40.5473684 L78.4,56.5 L71.0315789,48.3947368 Z M92.1052632,44.8947368 C92.1052632,46.6263158 91,47.5105263 89.1947368,47.5105263 L83.0421053,47.5105263 L83.0421053,42.5368421 L89.1578947,42.5368421 C90.8526316,42.5368421 92.0315789,43.2368421 92.0315789,44.9684211 L92.1052632,44.8947368 Z M113.031579,44.6 C113.078493,45.3640763 112.713094,46.0948751 112.073684,46.5157895 C111.350904,46.8583504 110.548731,46.9984125 109.752632,46.9210526 L103.968421,46.9210526 L103.968421,42.5368421 L109.752632,42.5368421 C110.520844,42.4679667 111.293989,42.5947118 112,42.9052632 C112.647246,43.2655786 113.022378,43.9725584 112.957895,44.7105263 L113.031579,44.6 Z" id="Shape" fill="#2D78BC"></path>
    <path d="M176.142105,48.8 L176.142105,36.0894737 L164.389474,36.0894737 C162.296852,35.9088702 160.202208,36.4131364 158.421053,37.5263158 L158.421053,36.0894737 L145.673684,36.0894737 C143.673947,35.9074811 141.672072,36.4144495 140,37.5263158 L140,36.0894737 L117.121053,36.0894737 L117.121053,37.5263158 C115.197956,36.4137054 113.005348,35.8528058 110.784211,35.9052632 L95.7894737,35.9052632 L95.7894737,37.5263158 C93.8292696,36.2755387 91.5114271,35.7057897 89.1947368,35.9052632 L72.2473684,35.9052632 L68.3789474,40.1421053 L64.6947368,35.9052632 L39.3105263,35.9052632 L39.3105263,63.6473684 L64.1421053,63.6473684 L68.1210526,59.6315789 L71.8052632,63.9421053 L87.0947368,63.9421053 L87.0947368,57.3105263 L88.6052632,57.3105263 C90.8221551,57.4541534 93.0443772,57.1277253 95.1263158,56.3526316 L95.1263158,63.7210526 L107.726316,63.7210526 L107.726316,56.3526316 L108.352632,56.3526316 C109.126316,56.3526316 109.2,56.3526316 109.2,57.1631579 L109.2,63.5736842 L147.515789,63.5736842 C149.77106,63.6486602 151.995246,63.0315449 153.889474,61.8052632 L153.889474,63.5736842 L166.047368,63.5736842 C168.46499,63.7698374 170.895687,63.4171975 173.157895,62.5421053 L173.157895,62.5421053 C177.742728,59.5710374 179.102859,53.4750281 176.215789,48.8368421 L176.142105,48.8 Z M88.9,53.2210526 L83.0421053,53.2210526 L83.0421053,59.8894737 L73.9421053,59.8894737 L68.1578947,53.3315789 L62.1526316,59.9263158 L43.7315789,59.9263158 L43.7315789,40.0315789 L62.5947368,40.0315789 L68.3789474,46.5526316 L74.3473684,40.0315789 L89.1578947,40.0315789 C92.8421053,40.0315789 97.0789474,41.0631579 97.0789474,46.5894737 C97.0789474,52.1157895 93.0263158,53.2578947 88.9,53.2578947 L88.9,53.2210526 Z M117.121053,52.2631579 C117.77728,53.3726533 118.049224,54.667623 117.894737,55.9473684 L117.894737,59.8894737 L113.215789,59.8894737 L113.215789,57.4210526 C113.415498,56.0690396 113.142201,54.6895395 112.442105,53.5157895 C111.742105,52.8157895 110.710526,52.6315789 109.015789,52.6315789 L104.005263,52.6315789 L104.005263,60 L99.2894737,60 L99.2894737,40.1052632 L110.121053,40.1052632 C112.047566,39.9331431 113.986364,40.2499401 115.757895,41.0263158 C117.361641,41.8992966 118.311036,43.6254679 118.189474,45.4473684 C118.277467,47.7286221 116.962808,49.8320767 114.873684,50.7526316 C115.774422,51.0821388 116.565444,51.6562677 117.157895,52.4105263 L117.121053,52.2631579 Z M136.315789,44.1578947 L125.263158,44.1578947 L125.263158,47.8421053 L136.315789,47.8421053 L136.315789,51.8947368 L125.263158,51.8947368 L125.263158,55.9473684 L136.315789,55.9473684 L136.315789,60.0736842 L120.768421,60.0736842 L120.768421,40.1789474 L136.315789,40.1789474 L136.315789,44.1578947 Z M148.252632,59.9263158 L139.226316,59.9263158 L139.226316,55.6526316 L148.326316,55.6526316 C149.002326,55.737995 149.685797,55.5671271 150.242105,55.1736842 C150.596221,54.8384365 150.796189,54.3718445 150.794737,53.8842105 C150.807081,53.3760777 150.590706,52.8892336 150.205263,52.5578947 C149.724714,52.2139638 149.135362,52.0568033 148.547368,52.1157895 C144.163158,52.1157895 138.673684,52.1157895 138.673684,45.9631579 C138.633765,44.2381731 139.356369,42.5833255 140.648723,41.4400896 C141.941077,40.2968537 143.671716,39.7815242 145.378947,40.0315789 L154.736842,40.0315789 L154.736842,44.2684211 L146.189474,44.2684211 C145.540151,44.1945143 144.883859,44.323199 144.310526,44.6368421 C143.826806,44.9974246 143.571258,45.5879821 143.63955,46.187433 C143.707842,46.7868839 144.089675,47.3048284 144.642105,47.5473684 C145.238854,47.726464 145.862031,47.8012453 146.484211,47.7684211 L149.026316,47.7684211 C150.945735,47.5768895 152.863726,48.1456731 154.368421,49.3526316 C155.396044,50.4986575 155.902904,52.019237 155.768421,53.5526316 C155.768421,57.8263158 153.115789,59.8157895 148.4,59.8157895 L148.252632,59.9263158 Z M172.421053,58.0105263 C170.816321,59.4042449 168.718798,60.094569 166.6,59.9263158 L157.647368,59.9263158 L157.647368,55.6526316 L166.673684,55.6526316 C167.35033,55.7494224 168.037982,55.5775092 168.589474,55.1736842 C168.943589,54.8384365 169.143557,54.3718445 169.142105,53.8842105 C169.159855,53.3750137 168.942486,52.8859338 168.552632,52.5578947 C168.055114,52.2589409 167.464808,52.1539978 166.894737,52.2631579 C162.473684,52.2631579 156.984211,52.2631579 156.984211,46.1105263 C156.95542,44.3822194 157.686663,42.7283708 158.984447,41.5866045 C160.282231,40.4448382 162.015757,39.930229 163.726316,40.1789474 L172.9,40.1789474 L172.9,44.4157895 L164.5,44.4157895 C163.838635,44.3365504 163.169013,44.4653239 162.584211,44.7842105 C162.102438,45.0962529 161.832984,45.6493441 161.884211,46.2210526 C161.866199,46.8857979 162.285031,47.4841306 162.915789,47.6947368 C163.500022,47.8732574 164.111007,47.948072 164.721053,47.9157895 L167.263158,47.9157895 C169.170281,47.7341078 171.073186,48.3023364 172.568421,49.5 C172.734918,49.6408676 172.883407,49.8017308 173.010526,49.9789474 L173.010526,49.7578947 C174.888285,52.2528645 174.733798,55.7288187 172.642105,58.0473684 L172.421053,58.0105263 Z M59.9789474,44.1578947 L65.1,49.9421053 L59.7578947,55.9473684 L48.2263158,55.9473684 L48.2263158,51.8210526 L58.5421053,51.8210526 L58.5421053,47.7684211 L48.2263158,47.7684211 L48.2263158,44.0842105 L59.9789474,44.1578947 Z M71.0315789,50.0157895 L78.4,42.1684211 L78.4,58.1210526 L71.0315789,50.0157895 Z M92.1052632,46.5894737 C92.1052632,48.3210526 91,49.2052632 89.1947368,49.2052632 L83.0421053,49.2052632 L83.0421053,44.1578947 L89.1578947,44.1578947 C90.8526316,44.1578947 92.0315789,44.8578947 92.0315789,46.5894737 L92.1052632,46.5894737 Z M113.031579,46.2947368 C113.078493,47.0588132 112.713094,47.789612 112.073684,48.2105263 C111.350904,48.5530873 110.548731,48.6931493 109.752632,48.6157895 L103.968421,48.6157895 L103.968421,44.1578947 L109.752632,44.1578947 C110.520844,44.0890194 111.293989,44.2157644 112,44.5263158 C112.647246,44.8866312 113.022378,45.5936111 112.957895,46.3315789 L113.031579,46.2947368 Z" id="Shape" fill="#FFFFFF"></path>
  </g>
</g>
</svg>
