<svg width="113px" height="68px" viewBox="0 0 113 68" version="1.1" xmlns="http://www.w3.org/2000/svg" xmlns:xlink="http://www.w3.org/1999/xlink">
  <g id="Page-1" stroke="none" stroke-width="1" fill="none" fill-rule="evenodd">
    <g id="cirrus" fill-rule="nonzero">
      <polygon id="Shape" fill="#0683C2" points="78.708 67.592 80.444 67.592 82.152 67.592 83.86 67.368 85.54 67.06 87.164 66.696 88.788 66.248 90.356 65.716 91.896 65.128 93.408 64.456 94.864 63.728 96.292 62.916 97.664 62.02 99.008 61.096 100.268 60.088 101.5 59.024 102.676 57.904 103.796 56.728 104.86 55.496 105.868 54.208 106.82 52.892 107.688 51.52 108.5 50.092 109.228 48.636 109.9 47.124 110.488 45.584 111.02 44.016 111.468 42.42 111.832 40.768 112.14 39.116 112.336 37.408 112.336 35.7 112.336 33.964 112.336 32.228 112.336 30.52 112.14 28.84 111.832 27.188 111.496 25.2 111.048 23.604 110.516 22.036 109.928 20.496 109.2 19.124 108.472 17.668 107.66 16.268 106.792 14.896 105.84 13.58 104.832 12.32 103.768 11.2 102.648 10.024 101.472 8.904 100.24 7.84 98.98 6.832 97.636 5.908 96.264 5.04 94.836 4.228 93.38 3.472 91.868 2.66 90.328 2.044 88.76 1.512 87.164 1.064 85.512 0.7 83.832 0.392 82.152 0.168 80.444 0.168 78.708 0.168 76.972 0.168 75.264 0.168 73.584 0.392 71.904 0.7 70.28 1.064 68.656 1.512 67.2 2.044 65.52 2.66 64.008 3.332 62.552 4.088 61.124 4.9 59.752 5.768 58.436 6.692 57.148 7.7 56 8.792 54.824 9.912 53.704 11.088 52.64 12.32 51.632 13.58 50.68 14.896 49.812 16.268 49 17.668 48.244 19.124 47.6 20.636 47.012 22.176 46.48 23.744 45.976 25.2 45.584 26.852 45.276 28.504 45.052 30.184 45.052 31.892 45.052 35.364 45.052 37.072 45.276 38.78 45.584 40.432 45.976 42.084 46.424 43.68 46.956 45.248 47.544 46.788 48.216 48.3 48.972 49.756 49.784 51.184 50.652 52.556 51.604 53.872 52.612 55.16 53.676 56.392 54.796 57.568 56 58.8 57.232 59.864 58.52 60.872 59.836 61.796 61.208 62.692 62.636 63.504 64.092 64.232 65.604 64.904 67.144 65.492 68.712 66.024 70.336 66.472 71.96 66.836 73.64 67.144 75.32 67.368 77.028 67.368"></polygon>
      <polygon id="Shape" fill="#305499" points="33.852 67.592 35.588 67.592 37.296 67.592 38.976 67.368 40.656 67.06 42.28 66.696 43.876 66.248 45.444 65.716 46.984 65.128 48.496 64.456 49.952 63.728 51.38 62.916 52.752 62.02 54.068 61.096 55.328 60.088 56.56 59.024 57.736 57.904 58.856 56.728 59.92 55.496 60.928 54.208 61.88 52.892 62.748 51.52 63.56 50.092 64.316 48.636 64.988 47.124 65.576 45.584 66.108 44.016 66.556 42.42 66.948 40.768 67.256 39.116 67.48 37.408 67.48 35.7 67.48 33.964 67.48 32.228 67.48 30.52 67.256 28.84 66.948 27.188 66.612 25.2 66.164 23.604 65.632 22.036 65.044 20.496 64.4 19.124 63.644 17.668 62.832 16.268 61.964 14.896 61.012 13.58 60.004 12.32 58.8 11.2 57.68 10.024 56.504 8.904 55.272 7.84 54.012 6.832 52.696 5.908 51.324 5.04 49.896 4.228 48.44 3.472 47.04 2.66 45.5 2.044 43.932 1.512 42.308 1.064 40.684 0.7 39.004 0.392 37.324 0.168 35.616 0.168 33.88 0.168 32.144 0.168 30.436 0.168 28.756 0.392 27.076 0.7 25.396 1.064 23.8 1.512 22.232 2.044 20.692 2.66 19.208 3.332 17.752 4.088 16.324 4.9 14.952 5.768 13.636 6.692 12.348 7.7 11.2 8.792 10.024 9.912 8.792 11.2 7.728 12.432 6.72 13.692 5.768 15.008 4.872 16.38 4.06 17.78 3.304 19.236 2.8 20.636 2.184 22.176 1.652 23.744 1.064 25.2 0.7 26.852 0.392 28.504 0.168 30.184 0.168 31.892 0.168 35.364 0.168 37.072 0.392 38.78 0.7 40.432 1.064 42.084 1.54 43.68 2.072 45.248 2.688 46.788 3.36 48.3 4.116 49.756 4.928 51.184 5.824 52.556 6.776 53.872 7.784 55.16 8.848 56.392 9.968 57.568 11.2 58.8 12.432 59.864 13.72 60.872 15.036 61.796 16.408 62.692 17.836 63.504 19.292 64.232 20.776 64.904 22.316 65.492 23.884 66.024 25.48 66.472 27.104 66.836 28.784 67.144 30.464 67.368 32.172 67.368"></polygon>
      <polygon id="Shape" fill="#0683C2" points="52.108 12.88 69.244 12.88 69.244 10.976 53.76 10.976"></polygon>
      <polygon id="Shape" fill="#0683C2" points="49.42 16.8 69.244 16.8 69.244 14.98 50.624 14.98"></polygon>
      <polygon id="Shape" fill="#0683C2" points="47.432 20.944 69.272 20.944 69.272 19.04 48.328 19.04"></polygon>
      <polygon id="Shape" fill="#0683C2" points="46.116 24.948 69.272 24.948 69.272 23.044 46.676 23.044"></polygon>
      <polygon id="Shape" fill="#0683C2" points="45.248 28.952 69.244 28.952 69.244 27.048 45.584 27.048"></polygon>
      <polygon id="Shape" fill="#0683C2" points="44.8 32.928 69.16 32.928 69.16 31.052 45.024 31.052"></polygon>
      <polygon id="Shape" fill="#0683C2" points="45.08 36.932 69.272 36.932 69.272 35.056 44.8 35.056"></polygon>
      <polygon id="Shape" fill="#0683C2" points="45.64 40.936 69.244 40.936 69.244 39.06 45.304 39.06"></polygon>
      <polygon id="Shape" fill="#0683C2" points="46.788 44.94 69.188 44.94 69.188 43.064 46.2 43.064"></polygon>
      <polygon id="Shape" fill="#0683C2" points="48.496 48.944 69.244 48.944 69.244 47.068 47.6 47.068"></polygon>
      <polygon id="Shape" fill="#0683C2" points="50.904 53.004 69.244 53.004 69.244 51.044 49.644 51.044"></polygon>
      <polygon id="Shape" fill="#0683C2" points="54.18 57.008 69.272 57.008 69.272 55.132 52.472 55.132"></polygon>
      <polygon id="Shape" fill="#FFFFFF" points="104.3 43.288 104.3 43.288 104.3 43.12 104.3 42.98 104.3 42.98 104.3 42.98 104.3 42.98 104.3 42.98 104.3 42.98 104.3 42.98 104.3 42.98 104.44 42.98 104.58 42.98 106.4 42.98 106.4 42 106.54 42 106.54 42 106.54 42 106.54 42 106.54 42 106.54 42 106.54 42 106.54 42 106.54 42.14 106.54 42.308 106.26 42.308 106.26 42.084 106.26 41.86 106.092 41.664 105.896 41.496 105.672 41.496 105.42 41.496 104.636 41.496 104.636 41.496 104.636 41.496 104.636 41.496 104.636 41.496 104.636 41.496 104.636 41.496 104.636 41.496 104.636 41.496 104.636 41.496 104.636 41.496"></polygon>
      <polygon id="Shape" fill="#FFFFFF" points="105.28 43.288 105.28 42.84 106.4 42.84 106.4 42.84 106.4 42.84 106.4 43.12 106.4 43.12 106.4 43.12 105.7 43.12 105.7 43.344"></polygon>
      <polygon id="Shape" fill="#FFFFFF" points="104.272 43.54 104.272 43.288 104.552 43.288 104.552 43.512"></polygon>
      <polygon id="Shape" fill="#FFFFFF" points="105.28 43.54 105.28 43.288 105.56 43.288 105.56 43.512 106.232 43.512 106.232 43.512 106.456 43.512 106.456 43.736 105.28 43.736"></polygon>
      <polygon id="Shape" fill="#FFFFFF" points="107.24 43.54 107.24 43.316 107.52 43.316 107.52 43.568"></polygon>
      <polygon id="Shape" fill="#FFFFFF" points="104.272 43.54 104.272 43.54 104.272 44.044 104.272 44.184 104.272 44.324 104.272 44.464 104.272 44.464 104.272 44.464 104.272 44.464 104.272 44.464 104.272 44.464 104.412 44.464 104.552 44.464 106.4 44.464 106.54 44.464 106.68 44.464 106.68 44.464 106.68 44.464 106.68 44.464 106.68 44.464 106.68 44.464 106.68 44.324 106.68 44.184 106.68 44.044 106.68 43.54 106.4 43.54 106.4 43.82 106.4 44.072 106.4 44.296 106.232 44.492 106.036 44.66 106.4 44.8 106.148 44.8 105.364 44.8 105.364 44.8 105.364 44.8 105.364 44.8 105.364 44.8 105.364 44.8 105.364 44.8 105.364 44.8 105.364 44.8 105.364 44.8 105.364 44.38 105.084 44.38"></polygon>
      <polygon id="Shape" fill="#FFFFFF" points="105.28 43.54 105.28 44.268 105.56 44.268 105.56 43.708 105.84 43.708 106.176 44.268 106.4 44.268 106.064 43.708 106.4 43.708 106.4 43.708 105.28 43.708"></polygon>
      <path d="M105.924,45.36 L105.756,45.36 L105.42,45.36 L105.252,45.36 L105.084,45.36 L104.804,45.164 L104.804,45.164 L104.58,44.912 L104.412,44.604 L104.412,44.436 L104.412,44.268 L104.412,43.54 L104.412,43.204 L104.58,42.924 L104.58,42.924 L104.832,42.7 L104.832,42.7 L105.14,42.532 L105.308,42.532 L105.644,42.532 L106.008,42.532 L106.4,42 L106.568,42 L106.876,42.14 L107.128,42.336 L107.352,42.588 L107.52,42.868 L107.52,43.204 L107.52,43.932 L107.52,44.268 L107.352,44.576 L107.128,44.828 L106.876,45.024 L106.736,45.024 L106.568,45.024 L106.4,45.024 L106.064,45.024 L105.924,45.36 Z M105.924,42.112 L105.756,42.112 L105.448,42.112 L105.448,42.112 L105.196,42.112 L104.972,42.28 L104.972,42.28 L104.804,42.532 L104.804,42.532 L104.804,42.812 L104.804,43.288 L104.804,43.596 L104.804,43.736 L104.944,43.988 L105.14,44.212 L105.364,44.38 L105.364,44.38 L105.364,44.38 L105.364,44.38 L105.672,44.38 L105.98,44.38 L106.26,44.38 L106.26,44.38 L106.26,44.38 L106.26,44.38 L106.96,44.8 L107.156,44.576 L107.156,44.324 L107.156,44.044 L107.156,43.4 L107.156,43.092 L107.156,42.952 L107.016,42.7 L106.82,42.476 L106.596,42.308 L106.344,42.308 L106.344,42.308 L106.064,42.308 L105.924,42.112 Z" id="Shape" fill="#FFFFFF"></path>
      <path d="M106.708,44.38 L106.148,44.38 L105.812,43.792 L105.812,43.792 L105.812,44.38 L105.28,44.38 L105.28,42.728 L106.4,42.728 L106.4,42.728 L106.4,42.728 L106.4,42.728 L106.4,43.176 L106.4,43.344 L106.232,43.344 L106.708,44.38 Z M106.4,44.128 L106.4,44.128 L106.092,43.596 L106.484,43.456 L106.484,43.456 L106.484,43.26 L106.484,43.26 L106.484,43.26 L106.484,43.26 L106.316,43.26 L105.644,43.26 L105.644,44.436 L105.644,44.436 L105.644,43.876 L106.12,43.876 L106.4,44.128 Z" id="Shape" fill="#FFFFFF"></path>
      <path d="M105.98,43.624 L105.448,43.624 L105.448,42.924 L106.232,42.924 L106.232,42.924 L106.232,42.924 L106.232,43.232 L106.232,43.232 L106.232,43.232 L106.064,43.232 L105.98,43.624 Z M105.7,43.372 L106.036,43.372 L106.036,43.372 L106.036,43.372 L105.532,43.372 L105.532,43.596 L105.7,43.372 Z" id="Shape" fill="#FFFFFF"></path>
      <path d="M105.924,45.052 L105.644,45.052 L105.364,45.052 L105.364,45.052 L105,44.8 L104.804,44.604 L104.804,44.604 L104.804,44.604 L104.804,44.604 L104.804,44.324 L104.804,43.708 L104.804,43.428 L104.804,43.176 L104.804,43.176 L105,42.98 L105.224,42.812 L105.504,42.812 L106.204,42.812 L106.456,42.812 L106.708,42.812 L106.932,42.98 L107.1,43.176 L107.1,43.4 L107.1,43.68 L107.1,44.296 L107.1,44.576 L107.1,44.828 L106.932,45.052 L106.708,45.22 L106.456,45.22 L106.204,45.22 L105.924,45.052 Z M105.924,42.252 L105.672,42.252 L105.42,42.252 L105.42,42.252 L105.224,42.252 L105.056,42.42 L105.056,42.42 L105.056,42.616 L105.056,42.84 L105.056,43.344 L105.056,43.596 L105.056,43.792 L105.308,44.044 L105.504,44.044 L105.728,44.044 L106.344,44.044 L106.4,44.8 L106.596,44.8 L106.764,44.66 L106.904,44.464 L106.904,44.24 L106.904,43.988 L106.904,43.484 L106.904,43.26 L106.904,43.064 L106.736,42.896 L106.568,42.756 L106.372,42.756 L106.148,42.756 L105.924,42.252 Z" id="Shape" fill="#FFFFFF"></path>
      <polygon id="Shape" fill="#FFFFFF" points="103.236 29.12 101.528 29.12 101.276 29.12 98.196 29.12 97.832 29.12 97.468 29.12 97.16 29.12 96.852 29.12 96.6 29.26 96.376 29.428 96.18 29.624 96.04 29.82 96.04 30.016 96.04 30.24 96.04 30.8 96.04 31.024 96.04 31.276 96.04 31.528 96.236 31.78 96.404 31.976 96.6 32.144 96.824 32.284 97.048 32.284 97.3 32.284 97.552 32.284 97.832 32.284 98.112 32.284 98.42 32.284 98.728 32.284 99.036 32.284 99.344 32.284 99.652 32.284 99.96 32.284 100.268 32.284 100.576 32.284 100.856 32.424 101.136 32.592 101.416 32.76 101.668 32.956 101.892 33.18 102.116 33.432 102.34 33.712 102.536 34.02 102.704 34.356 102.844 34.72 102.844 35.112 102.844 35.56 102.844 36.036 102.844 37.1 102.844 37.716 102.844 38.164 102.844 38.584 102.844 38.976 102.844 39.368 102.704 39.732 102.536 40.068 102.368 40.404 102.172 40.712 101.948 40.992 101.724 41.244 101.5 41.496 101.248 41.72 100.996 41.916 100.716 42.112 100.436 42.308 100.128 42.476 99.82 42.616 99.512 42.756 99.204 42.756 98.896 42.756 98.588 42.756 98.252 42.756 97.944 42.756 97.608 42.756 97.3 42.756 96.992 42.756 88.788 42.756 88.62 42.756 88.452 42.756 88.284 42.756 88.116 42.756 87.976 42.756 87.808 42.756 87.64 42.756 87.472 42.756 88.34 38.584 89.124 38.584 89.264 38.584 89.6 38.584 89.992 38.584 90.188 38.584 90.608 38.584 90.832 38.584 91.056 38.584 91.28 38.584 95.536 38.584 95.76 38.584 95.956 38.584 96.124 38.584 96.264 38.584 96.404 38.584 96.404 38.584 96.404 38.584 96.404 38.444 96.404 38.304 96.404 38.164 96.404 38.024 96.404 37.884 96.404 37.744 96.404 37.044 96.404 36.82 96.404 36.596 96.264 36.4 96.068 36.204 95.844 36.036 95.592 35.896 95.312 35.756 95.004 35.756 94.696 35.756 94.36 35.756 94.024 35.756 94.304 36.4 93.94 36.4 93.576 36.26 93.212 36.092 92.848 35.924 92.4 35.616 92.064 35.42 91.728 35.196 91.42 34.944 91.112 34.664 90.832 34.356 90.58 34.02 90.412 33.6 90.216 33.208 90.076 32.76 90.076 32.284 90.076 31.752 90.076 30.184 90.076 29.82 90.076 29.456 90.076 29.12 90.076 28.784 90.076 28.476 90.076 28.168 90.076 27.86 90.076 27.58 90.216 27.3 90.384 27.048 90.552 26.796 90.748 26.572 90.972 26.348 91.196 26.124 91.448 25.928 92.4 25.788 92.68 25.62 92.988 25.452 93.184 25.2 93.52 25.2 93.856 25.2 94.22 25.2 94.612 25.2 95.032 25.2 95.452 25.2 95.9 25.2 96.376 25.2 96.852 25.2 104.188 25.2"></polygon>
      <path d="M95.2,45.108 L92.12,45.108 L89.796,44.8 L88.424,44.492 L87.36,44.156 L87.36,44.156 L88.256,39.844 L89.488,40.208 L90.916,40.516 L92.652,40.74 L93.464,40.74 L95.2,40.74 L95.704,40.74 L95.928,40.74 L96.124,40.74 L96.292,40.74 L96.572,40.516 L96.796,40.264 L96.936,39.984 L96.936,39.704 L96.936,39.284 L96.936,38.752 L96.936,38.528 L96.936,38.332 L96.936,38.136 L96.768,37.968 L96.572,37.8 L96.348,37.66 L96.096,37.52 L95.2,36.96 L93.044,36.092 L92.68,35.924 L92.4,35.728 L92.064,35.532 L91.728,35.28 L91.392,35.028 L91.084,34.748 L90.804,34.412 L90.552,34.076 L90.3,33.6 L90.104,33.18 L89.964,32.704 L89.964,32.228 L89.964,31.696 L89.964,30.492 L89.964,29.736 L89.964,29.036 L90.16,28.364 L90.16,28.056 L90.412,27.468 L90.552,27.188 L90.916,26.656 L91.112,26.404 L91.56,25.956 L91.812,25.76 L92.064,25.564 L92.344,25.368 L93.128,25.2 L93.464,25.06 L93.828,25.06 L94.192,25.06 L94.584,25.06 L95.004,25.06 L95.9,24.92 L96.376,24.92 L96.88,24.92 L99.204,24.92 L102.228,25.06 L104.384,25.396 L104.384,25.396 L103.404,29.736 L102.536,29.736 L101.08,29.512 L100.1,29.512 L99.288,29.512 L98.28,29.512 L97.916,29.512 L97.552,29.512 L97.244,29.512 L96.964,29.512 L96.712,29.512 L96.488,29.68 L96.32,29.848 L96.32,30.016 L96.32,30.212 L96.32,30.408 L96.32,30.8 L96.32,31.024 L96.32,31.248 L96.32,31.5 L96.488,31.724 L96.656,31.892 L97.048,32.2 L97.524,32.452 L97.776,32.452 L98.616,32.76 L99.82,33.152 L100.436,33.404 L100.744,33.404 L101.052,33.572 L101.612,33.936 L101.892,34.16 L102.144,34.384 L102.368,34.636 L102.592,34.916 L102.788,35.224 L102.956,35.56 L103.096,35.952 L103.096,36.372 L103.096,36.82 L103.096,37.296 L103.096,38.388 L103.096,39.004 L103.096,39.452 L103.096,39.872 L103.096,40.264 L103.096,40.656 L102.956,41.02 L102.788,41.356 L102.592,41.692 L102.396,42 L102.172,42.28 L101.948,42.56 L101.696,42.812 L101.444,43.064 L101.164,43.288 L100.604,43.68 L99.988,43.988 L99.68,44.128 L99.372,44.128 L98.728,44.352 L98,44.8 L97.356,44.94 L96.712,44.94 L95.76,44.94 L95.2,45.108 Z M93.772,44.8 L95.844,44.8 L96.796,44.8 L97.44,44.8 L98,44.52 L98.616,44.324 L98.924,44.324 L99.232,44.324 L99.82,44.044 L100.1,43.876 L100.66,43.512 L100.912,43.316 L101.164,43.092 L101.388,42.84 L101.612,42.588 L101.808,42.308 L102.004,42 L102.172,41.692 L102.34,41.356 L102.48,40.992 L102.48,40.628 L102.48,40.236 L102.48,39.816 L102.48,39.368 L102.48,37.716 L102.48,37.268 L102.48,36.848 L102.48,36.456 L102.48,36.092 L102.312,35.784 L102.144,35.504 L101.948,35.224 L101.724,34.972 L101.5,34.748 L101.248,34.552 L100.8,33.964 L100.52,33.824 L99.932,33.6 L99.036,33.264 L97.552,32.76 L97.02,32.508 L96.768,32.508 L96.348,32.172 L96.152,31.976 L95.956,31.724 L95.816,31.444 L95.816,31.192 L95.816,30.94 L95.816,30.436 L95.816,30.184 L95.816,29.96 L95.984,29.764 L96.18,29.568 L96.432,29.4 L96.712,29.26 L97.02,29.26 L97.356,29.26 L97.72,29.26 L98.112,29.26 L99.148,29.26 L99.96,29.26 L100.94,29.26 L103.068,29.54 L103.992,25.536 L102.452,25.284 L100.856,25.284 L98.448,25.284 L96.88,25.284 L96.404,25.284 L95.48,25.284 L95.06,25.284 L94.276,25.48 L93.912,25.48 L93.576,25.48 L92.96,25.76 L92.68,25.928 L92.4,26.096 L92.148,26.264 L91.896,26.46 L91.476,26.88 L91.28,27.104 L90.944,27.608 L90.944,27.86 L90.692,28.42 L90.692,28.728 L90.524,29.372 L90.524,30.072 L90.524,30.8 L90.524,31.976 L90.524,32.48 L90.524,32.956 L90.664,33.404 L90.86,33.796 L91.084,34.16 L91.336,34.496 L91.616,34.804 L91.924,35.084 L92.232,35.308 L92.568,35.532 L92.904,35.728 L93.268,35.924 L93.996,36.26 L96.404,37.24 L96.684,37.408 L96.936,37.576 L97.16,37.744 L97.356,37.94 L97.524,38.164 L97.524,38.416 L97.524,38.668 L97.524,39.256 L97.524,39.704 L97.524,40.012 L97.356,40.32 L97.356,40.46 L97.356,40.46 L97.048,40.712 L96.852,40.712 L96.628,40.712 L96.376,40.712 L95.844,40.712 L95.004,40.712 L94.164,40.712 L92.568,40.712 L90.944,40.432 L89.572,40.096 L89.18,40.096 L88.368,44.044 L89.712,44.436 L90.972,44.66 L92.092,44.66 L93.772,44.8 Z" id="Shape" fill="#FFFFFF"></path>
      <polygon id="Shape" fill="#FFFFFF" points="28.952 26.208 28.952 26.208 28.952 26.208 28.952 26.208 28.952 26.208 28.952 26.208 28.952 26.208 28 25.76 27.86 25.76 27.72 25.76 27.58 25.76 27.44 25.76 27.3 25.76 27.132 25.76 26.992 25.2 26.796 25.2 26.656 25.2 26.46 25.2 26.292 25.2 26.096 25.2 25.9 25.2 25.732 25.2 25.536 25.2 21.616 25.2 21.364 25.2 21.084 25.2 20.832 25.2 20.58 25.2 20.3 25.2 20.048 25.2 19.796 25.2 19.6 25.788 19.348 25.984 19.096 26.18 18.844 26.404 18.592 26.656 18.34 26.936 18.088 27.216 17.864 27.552 17.64 27.888 17.416 28.252 17.192 28.644 16.996 29.064 16.8 29.512 16.604 29.988 16.436 30.52 16.268 31.08 16.128 31.668 15.988 32.312 15.988 32.956 15.988 33.6 15.988 34.86 15.988 35.476 15.988 36.064 16.156 36.652 16.38 37.184 16.66 37.688 16.996 38.164 17.388 38.612 17.836 39.004 18.34 39.34 18.9 39.648 19.544 39.9 20.244 40.068 23.884 40.068 24.108 40.068 24.36 40.068 24.584 40.068 24.808 40.068 25.032 40.068 25.256 40.068 25.48 40.068 25.704 40.068 25.928 40.068 26.124 40.068 26.32 39.928 26.516 39.76 26.684 39.592 25.816 44.632 25.816 44.632 25.816 44.632 25.816 44.632 25.816 44.632 25.816 44.632 25.816 44.632 25.816 44.632 25.816 44.632 25.816 44.632 25.816 44.632 25.816 44.632 25.816 44.632 25.676 44.632 25.508 44.632 25.34 44.632 25.144 44.632 24.948 44.632 24.724 44.632 24.5 44.632 24.248 44.632 18.116 44.632 17.696 44.632 17.276 44.632 16.8 44.8 16.352 44.8 15.932 44.66 15.512 44.492 15.092 44.296 14.672 44.072 14.252 43.82 14 43.372 13.608 43.064 13.216 42.756 12.852 42.42 12.376 42 12.04 41.608 11.732 41.188 11.424 40.74 11.2 40.376 10.948 39.9 10.724 39.396 10.528 38.864 10.36 38.304 10.22 37.744 10.22 37.128 10.22 36.484 10.22 35.84 10.22 34.468 10.22 33.74 10.22 32.984 10.22 32.2 10.36 31.416 10.528 30.66 10.696 29.932 10.892 29.232 11.088 28.56 11.2 28 11.452 27.384 11.704 26.796 11.984 26.236 12.264 25.676 12.572 25.144 12.88 24.64 13.216 24.164 13.58 23.716 14 23.184 14.392 22.792 14.84 22.4 15.26 22.064 15.708 21.728 16.156 21.42 16.632 21.14 17.136 20.888 17.668 20.664 18.2 20.44 18.76 20.272 19.348 20.104 19.964 20.104 20.58 20.104 21.224 20.104 21.896 20.104 25.872 20.104 26.152 20.104 26.404 20.104 26.656 20.104 26.908 20.104 27.132 20.104 27.356 20.104 27.58 20.104 27.804 20.104 28.028 20.104 28.224 20.104 28.42 20.104 28.616 20.104 28.784 20.104 28.952 20.104 29.092 20.104 29.092 20.104 29.092 20.104 29.624 20.104"></polygon>
      <path d="M20.944,45.192 L19.068,45.192 L18.088,45.192 L17.64,45.192 L17.192,45.192 L16.8,44.8 L16.352,44.8 L15.904,44.66 L15.484,44.492 L15.036,44.296 L14.616,44.072 L14.196,43.82 L13.804,43.568 L13.412,43.26 L13.02,42.952 L12.656,42.616 L12.292,42.252 L11.956,41.86 L11.62,41.44 L11.312,40.992 L11.2,40.46 L10.948,39.984 L10.696,39.48 L10.36,38.92 L10.192,38.36 L10.052,37.772 L10.052,37.156 L10.052,36.512 L10.052,35.868 L10.052,34.468 L10.052,33.74 L10.052,32.984 L10.052,32.2 L10.192,31.416 L10.528,29.904 L10.92,28.504 L11.2,27.86 L11.452,27.244 L11.704,26.656 L11.984,26.068 L12.264,25.508 L12.572,24.976 L12.88,24.472 L13.244,23.996 L13.608,23.548 L14,23.1 L14.392,22.708 L14.728,22.4 L15.176,22.036 L15.624,21.7 L16.1,21.392 L16.604,21.112 L17.108,20.86 L17.64,20.636 L18.172,20.412 L18.732,20.244 L19.32,20.076 L19.936,20.076 L20.552,20.076 L21.196,20.076 L21.868,20.076 L23.576,20.076 L24.78,20.076 L25.9,20.216 L27.188,20.468 L29.988,21.28 L29.988,21.28 L29.036,26.712 L28,25.9 L27.104,25.48 L25.872,25.2 L24.892,25.032 L24.024,25.032 L22.624,25.032 L21.644,25.2 L21.364,25.2 L21.112,25.2 L20.608,25.368 L20.356,25.368 L19.852,25.62 L19.6,25.9 L19.096,26.264 L18.844,26.488 L18.592,26.74 L18.34,26.992 L18.116,27.272 L17.892,27.58 L17.472,28.28 L17.276,28.672 L17.08,29.092 L16.8,30.044 L16.464,31.136 L16.184,32.34 L16.184,32.984 L16.184,33.628 L16.184,34.888 L16.184,35.504 L16.184,36.092 L16.352,36.652 L16.576,37.184 L16.856,37.688 L17.164,38.136 L17.556,38.556 L18.004,38.948 L18.508,39.284 L19.068,39.564 L19.684,39.816 L20.468,40.012 L21.784,40.012 L23.1,40.012 L24.052,40.012 L24.752,39.844 L25.228,39.676 L25.452,39.676 L25.872,39.452 L26.096,39.2 L26.46,38.892 L26.908,38.444 L25.984,43.904 L25.2,44.324 L24.696,44.604 L24.024,44.8 L23.548,44.8 L23.016,44.8 L22.092,44.8 L20.944,45.192 Z M23.576,19.796 L21.896,19.796 L21.224,19.796 L20.58,19.796 L19.964,19.796 L19.348,19.796 L18.76,19.964 L18.2,20.132 L17.668,20.328 L17.136,20.552 L16.8,21.28 L16.324,21.56 L15.876,21.868 L15.428,22.176 L14.896,22.4 L14.476,22.764 L14,23.268 L13.636,23.688 L13.3,24.136 L12.964,24.612 L12.712,25.2 L12.404,25.732 L12.124,26.264 L11.844,26.824 L11.592,27.412 L11.34,28 L11.2,28.588 L10.808,29.96 L10.472,31.444 L10.332,32.228 L10.332,33.012 L10.332,33.768 L10.332,35.868 L10.332,36.512 L10.332,37.128 L10.332,37.744 L10.472,38.304 L10.64,38.864 L10.836,39.396 L11.06,39.9 L11.2,40.32 L11.48,40.768 L11.76,41.188 L12.068,41.58 L12.404,41.972 L12.74,42.308 L13.104,42.644 L13.468,42.952 L13.86,43.232 L14.252,43.484 L14.672,43.736 L15.092,43.932 L15.512,44.128 L15.932,44.296 L16.352,44.436 L16.772,44.436 L17.192,44.436 L17.612,44.436 L18.032,44.436 L19.6,44.8 L22.092,44.8 L23.268,44.8 L23.968,44.632 L24.668,44.408 L25.2,44.128 L25.816,43.68 L26.6,39.06 L26.236,39.2 L25.816,39.48 L25.368,39.704 L24.892,39.9 L24.64,39.9 L23.912,40.068 L23.436,40.068 L22.708,40.068 L21.812,40.068 L20.832,40.068 L20.104,40.068 L19.404,39.9 L18.76,39.648 L18.172,39.34 L17.668,39.2 L17.22,38.78 L16.8,38.276 L16.464,37.8 L16.184,37.268 L15.96,36.708 L15.792,36.12 L15.792,35.504 L15.792,34.888 L15.792,33.6 L15.792,32.956 L15.792,32.312 L16.072,31.08 L16.408,29.988 L16.8,29.008 L16.996,28.56 L17.22,28.168 L17.668,27.44 L17.892,27.104 L18.144,26.824 L18.396,26.544 L18.648,26.292 L18.9,26.068 L19.432,25.676 L19.6,25.536 L20.244,25.2 L20.776,25.004 L21.028,25.004 L21.308,25.004 L21.84,25.004 L22.596,25.004 L24.024,25.004 L25.116,25.004 L26.292,25.228 L27.16,25.2 L28.224,25.62 L28.84,25.928 L29.708,20.944 L26.376,20.104 L24.752,19.88 L24.164,19.88 L23.576,19.796 Z" id="Shape" fill="#FFFFFF"></path>
      <polygon id="Shape" fill="#FFFFFF" points="34.944 44.8 38.22 25.2 32.032 25.2 28.784 44.8"></polygon>
      <path d="M35.056,45.024 L28.644,45.024 L28.644,45.024 L31.92,25.2 L38.36,25.2 L38.36,25.2 L35.056,45.024 Z M28.924,44.8 L34.86,44.8 L38.08,25.34 L32.144,25.34 L28.924,44.8 Z" id="Shape" fill="#FFFFFF"></path>
      <polygon id="Shape" fill="#FFFFFF" points="38.836 44.8 45.136 44.8 47.432 32.844 47.432 32.508 47.6 32.2 47.768 31.92 47.964 31.668 48.16 31.444 48.384 31.248 48.608 31.052 48.832 30.884 49.056 30.744 49.28 30.744 49.504 30.744 49.728 30.744 49.952 30.744 50.176 30.744 50.4 30.744 50.624 30.744 52.388 30.744 54.04 25.144 51.884 25.144 51.408 25.144 51.184 25.144 50.96 25.144 50.736 25.144 50.512 25.144 50.4 25.2 50.176 25.2 49.98 25.2 49.784 25.2 49.588 25.2 49.392 25.2 49.224 25.2 49.056 25.2 48.888 25.2 48.72 25.2 48.552 25.34 48.384 25.48 48.216 25.62 48.076 25.788 47.936 25.956 47.6 27.44 47.6 27.636 47.824 25.004 42.336 25.004"></polygon>
      <path d="M45.22,45.024 L38.696,45.024 L38.696,45.024 L42.196,25.032 L47.796,25.032 L47.6,27.216 L48.076,26.656 L48.552,26.208 L48.916,25.928 L49.28,25.676 L49.672,25.452 L50.512,25.088 L51.408,24.836 L52.164,24.836 L52.668,24.836 L54.236,24.836 L52.584,30.8 L52.416,30.8 L51.324,30.548 L50.736,30.548 L50.092,30.716 L49.644,30.884 L49.42,30.884 L49.196,30.884 L48.748,31.192 L48.524,31.36 L48.328,31.556 L48.132,31.78 L47.964,32.032 L47.796,32.312 L47.656,32.62 L47.656,32.928 L45.22,45.024 Z M38.976,44.8 L45.024,44.8 L47.292,32.956 L47.432,32.592 L47.6,32.284 L47.768,32.004 L47.964,31.752 L48.16,31.5 L48.384,31.276 L48.608,31.08 L49.084,30.772 L49.336,30.772 L49.812,30.548 L50.4,30.24 L50.932,30.24 L51.184,30.24 L51.8,30.24 L52.556,30.436 L54.152,24.976 L52.92,24.976 L52.164,24.976 L51.688,24.976 L50.82,25.228 L50.008,25.564 L49.28,26.012 L48.944,26.264 L48.468,26.684 L47.908,27.356 L47.516,27.888 L47.6,25.2 L42.42,25.2 L38.976,44.8 Z" id="Shape" fill="#FFFFFF"></path>
      <polygon id="Shape" fill="#FFFFFF" points="85.092 44.94 79.044 44.94 79.492 42.14 79.352 42.308 79.212 42.476 79.212 42.644 79.212 42.784 79.072 42.924 79.072 43.064 78.932 43.064 78.932 43.064 78.792 43.064 78.652 43.064 78.512 43.064 78.344 43.064 78.176 43.064 78.008 43.064 77.84 43.064 77.644 43.064 77.448 43.064 77.224 43.064 77 43.064 76.776 43.064 76.552 43.064 76.3 43.064 75.6 44.8 75.32 44.8 75.04 44.8 74.732 44.8 71.932 44.8 71.652 44.8 71.372 44.8 71.092 44.8 70.812 44.8 70.56 44.8 70 44.324 69.748 44.184 69.496 44.016 69.272 43.82 69.048 43.624 68.824 43.4 68.6 43.176 68.404 42.924 68.208 42.644 68.04 42.364 68.012 42 67.872 41.692 67.732 41.384 67.732 41.048 67.732 40.684 67.732 40.32 67.732 39.956 67.732 39.564 67.2 39.2 67.2 37.044 67.2 36.596 69.076 25.2 75.152 25.2 73.556 35.308 73.556 35.812 73.556 36.68 73.556 37.072 73.556 37.408 73.556 37.716 73.556 37.996 73.724 38.248 73.892 38.472 74.088 38.668 74.284 38.836 74.536 38.836 74.788 38.836 75.04 38.836 76.244 38.836 76.608 38.836 76.972 38.836 77.336 38.836 77.7 38.696 78.064 38.5 78.4 38.276 78.736 38.024 79.044 37.744 79.324 37.408 79.576 37.044 79.8 36.624 79.996 36.176 80.136 35.672 80.136 35.14 82.012 25.2 88.088 25.2"></polygon>
      <path d="M85.204,45.052 L78.904,45.052 L79.324,42.392 L78.764,43.008 L78.036,43.68 L77.532,44.016 L77.168,44.212 L76.748,44.408 L76.048,44.632 L75.236,44.8 L74.62,44.8 L73.948,44.8 L72.772,44.8 L71.736,44.8 L71.428,44.8 L71.148,44.8 L70.868,44.8 L70.588,44.8 L70.308,44.8 L69.776,44.492 L69.524,44.296 L69.272,44.1 L69.048,43.904 L68.6,43.428 L68.404,43.176 L68.208,42.896 L67.9,42 L67.62,41.356 L67.396,40.656 L67.396,40.292 L67.2,39.592 L67.2,39.2 L67.2,37.492 L67.2,36.596 L69.048,25.06 L75.348,25.06 L73.668,35.784 L73.668,36.624 L73.668,36.988 L73.668,37.324 L73.668,37.632 L73.668,37.912 L73.808,38.164 L73.976,38.388 L74.172,38.556 L74.368,38.724 L74.592,38.724 L74.816,38.724 L75.068,38.724 L75.88,38.724 L76.552,38.724 L76.888,38.724 L77.252,38.724 L77.588,38.584 L77.924,38.416 L78.26,38.22 L78.568,37.968 L78.876,37.688 L79.156,37.38 L79.408,37.016 L79.632,36.624 L79.8,36.176 L79.94,35.7 L79.94,35.168 L81.9,25.2 L88.2,25.2 L85.204,45.052 Z M69.188,25.2 L67.368,36.4 L67.368,37.296 L67.368,39.2 L67.368,39.592 L67.368,40.348 L67.564,41.048 L67.564,41.384 L67.844,42 L68.18,42.56 L68.544,43.064 L68.964,43.512 L69.188,43.708 L69.412,43.904 L69.664,44.072 L70.168,44.352 L70.42,44.352 L70.7,44.352 L70.98,44.352 L71.26,44.352 L71.54,44.352 L72.8,44.352 L73.948,44.352 L75.208,44.212 L75.992,44.044 L76.664,43.82 L77.252,43.54 L77.588,43.344 L78.204,42.868 L78.904,42.168 L79.716,41.244 L79.184,44.8 L85.008,44.8 L87.948,25.2 L82.124,25.2 L80.612,35.056 L80.612,35.588 L80.472,36.092 L80.276,36.568 L80.052,36.988 L79.8,37.352 L79.492,37.688 L79.184,37.968 L78.848,38.22 L78.512,38.444 L78.148,38.64 L77.784,38.78 L77.42,38.78 L77.056,38.78 L76.328,38.78 L75.6,38.78 L75.32,38.78 L75.04,38.78 L74.788,38.78 L74.536,38.64 L74.312,38.472 L74.116,38.276 L73.92,38.024 L73.752,37.772 L73.612,37.464 L73.612,37.128 L73.612,36.764 L73.612,36.372 L73.612,35.476 L73.612,34.972 L75.012,25.2 L69.188,25.2 Z" id="Shape" fill="#FFFFFF"></path>
      <polygon id="Shape" fill="#FFFFFF" points="52.388 44.8 58.548 44.8 60.9 32.844 61.04 32.508 61.18 32.2 61.348 31.92 61.544 31.668 61.74 31.444 61.964 31.248 62.188 31.052 62.412 30.884 62.664 30.744 62.888 30.744 63.112 30.744 63.336 30.744 63.56 30.744 63.784 30.744 64.008 30.744 64.204 30.744 65.128 30.744 65.408 30.744 65.968 30.744 67.62 25.144 64.96 25.144 64.736 25.144 64.512 25.144 64.4 25.2 64.12 25.2 63.896 25.2 63.7 25.2 63.504 25.2 63.308 25.2 63.112 25.2 62.916 25.2 62.72 25.2 62.552 25.2 62.384 25.2 62.216 25.2 62.048 25.34 61.88 25.48 61.6 26.768 61.6 26.936 61.46 27.104 61.32 27.272 61.18 27.44 61.18 27.636 61.404 25.004 56 25.004"></polygon>
      <path d="M58.8,45.024 L52.248,45.024 L52.248,45.024 L55.748,25.032 L61.348,25.032 L61.152,27.384 L61.6,26.684 L61.936,26.376 L62.44,25.956 L63,25.592 L63.392,25.396 L63.84,25.2 L64.4,25.2 L65.1,25.004 L65.856,25.004 L66.388,25.004 L67.956,25.004 L66.08,30.8 L65.912,30.8 L64.82,30.548 L64.26,30.548 L63.616,30.716 L63.168,30.884 L62.944,30.884 L62.72,30.884 L62.496,31.024 L62.272,31.192 L62.048,31.36 L61.852,31.556 L61.656,31.78 L61.488,32.032 L61.32,32.312 L61.18,32.592 L61.04,32.928 L58.8,45.024 Z M52.528,44.8 L58.464,44.8 L60.788,32.956 L60.928,32.592 L61.096,32.284 L61.292,32.004 L61.488,31.752 L61.684,31.5 L61.908,31.276 L62.132,31.08 L62.356,30.912 L62.608,30.744 L62.832,30.744 L63.308,30.52 L63.756,30.352 L64.288,30.352 L64.54,30.352 L65.156,30.352 L65.912,30.548 L67.508,25.088 L66.276,25.088 L65.52,25.088 L65.044,25.088 L64.176,25.34 L63.756,25.508 L63.364,25.704 L62.636,26.152 L61.992,26.684 L61.6,27.16 L61.18,27.692 L60.928,28.028 L61.18,25.228 L56,25.228 L52.528,44.8 Z" id="Shape" fill="#FFFFFF"></path>
      <rect id="Rectangle-path" fill="#FFFFFF" x="42.336" y="24.864" width="5.488" height="0.28"></rect>
      <rect id="Rectangle-path" fill="#FFFFFF" x="55.888" y="24.864" width="5.432" height="0.28"></rect>
    </g>
  </g>
</svg>
