<svg width="117px" height="70px" viewBox="0 0 117 70" version="1.1" xmlns="http://www.w3.org/2000/svg" xmlns:xlink="http://www.w3.org/1999/xlink">
  <g id="Page-1" stroke="none" stroke-width="1" fill="none" fill-rule="evenodd">
    <g id="maestro" fill-rule="nonzero">
      <path d="M58.3508808,60.8416667 C65.6751161,54.2168667 69.8550471,44.7953939 69.8550471,34.9115278 C69.8550471,25.0276616 65.6751161,15.6061888 58.3508808,8.98138889 C51.9385086,3.17333712 43.5927958,-0.0293675728 34.9468835,2.64874656e-14 C15.66223,2.53048992e-14 0.0289295393,15.656366 0.0289295393,34.9694722 C0.0289295393,54.2825784 15.66223,69.9389444 34.9468835,69.9389444 C43.6082505,69.9366081 51.9559049,66.6918234 58.3508808,60.8416667 Z" id="Shape" fill="#009DDD"></path>
      <path d="M58.3508808,60.8416667 C65.6751161,54.2168667 69.8550471,44.7953939 69.8550471,34.9115278 C69.8550471,25.0276616 65.6751161,15.6061888 58.3508808,8.98138889 L58.3508808,60.8416667 Z" id="Shape" fill="#009DDD"></path>
      <path d="M81.8127371,1.40765126e-13 C73.1427657,-0.00841488801 64.7797318,3.21367676 58.3508808,9.03933333 C57.1544967,10.2113393 56.0244811,11.4494197 54.9661247,12.7477778 L61.9092141,12.7477778 C62.8582218,13.9382184 63.7465281,15.1759463 64.5707317,16.4562222 L52.0731707,16.4562222 C51.3210027,17.6923704 50.6363369,18.9285185 50.0191734,20.1646667 L66.5379404,20.1646667 C67.0876016,21.4104722 67.6372629,22.6273056 68.0422764,23.8731111 L48.6884146,23.8731111 C48.2677176,25.1070058 47.9199608,26.3646469 47.6469512,27.6395 L69.0548103,27.6395 C69.5509632,30.0708492 69.8029411,32.545817 69.8069783,35.0274167 C69.8069662,38.7985836 69.2013566,42.5452075 68.0133469,46.1237778 L48.6884146,46.1237778 C49.0934282,47.3599259 49.5755872,48.5960741 50.1348916,49.8322222 L66.5379404,49.8322222 C65.9417402,51.1044831 65.2753313,52.3425439 64.5418022,53.5406667 L52.0731707,53.5406667 C52.9596795,54.8173612 53.9259261,56.0366281 54.9661247,57.1911667 L61.9092141,57.1911667 C60.8102629,58.4902557 59.6212025,59.7101148 58.3508808,60.8416667 C69.8945742,71.3542055 87.0013159,72.9212368 100.257813,64.6804734 C113.51431,56.43971 119.70289,40.3913845 115.418175,25.3663774 C111.13346,10.3413702 97.4154538,-0.013386031 81.8127371,1.40765126e-13 Z" id="Shape" fill="#ED1C2E"></path>
      <path d="M104.638144,42.5312222 C104.645719,42.231517 104.771916,41.9471126 104.988951,41.7406247 C105.205987,41.5341367 105.496067,41.4224946 105.795325,41.4302778 C106.08928,41.4222078 106.373603,41.5356064 106.581539,41.7438486 C106.789474,41.9520909 106.902706,42.2368338 106.894648,42.5312222 C106.902419,42.8309224 106.790942,43.12143 106.584758,43.3387857 C106.378574,43.5561415 106.094589,43.6825249 105.795325,43.6901111 C105.168721,43.660877 104.667335,43.158751 104.638144,42.5312222 L104.638144,42.5312222 Z M105.795325,43.4293611 C106.023164,43.4220407 106.238219,43.3221859 106.391015,43.1527695 C106.543811,42.9833532 106.621191,42.7589628 106.605352,42.5312222 C106.613559,42.3136571 106.530856,42.1025097 106.377131,41.9485581 C106.223406,41.7946066 106.01257,41.7117811 105.795325,41.72 C105.56792,41.7041383 105.34386,41.7816323 105.174694,41.9346535 C105.005527,42.0876747 104.905819,42.3030473 104.898509,42.5312222 C104.898509,43.0272506 105.300028,43.4293611 105.795325,43.4293611 L105.795325,43.4293611 Z M105.795325,43.02375 L105.534959,43.02375 L105.534959,42.0676667 L105.939973,42.0676667 L106.200339,42.0676667 C106.258198,42.0676667 106.200339,42.0676667 106.200339,42.2704722 C106.200339,42.4732778 106.200339,42.5312222 105.997832,42.5312222 L106.200339,42.9368333 L105.911043,42.9368333 L105.911043,42.5891667 L105.911043,42.5891667 L105.795325,43.02375 Z M105.795325,42.4732778 L106.055691,42.4732778 L106.055691,42.2704722 L105.795325,42.2704722 L105.795325,42.4732778 Z" id="Shape" fill="#FFFFFF"></path>
      <polygon id="Shape" fill="#FFFFFF" points="30.578523 43.6901111 26.2101626 43.6901111 28.8138211 30.0441944 22.854336 43.6901111 18.8909892 43.6901111 18.1966802 30.1311111 15.5930217 43.6901111 11.5718157 43.6901111 14.9855014 26.075 21.8128726 26.075 22.1600271 37.0265 26.9623306 26.075 33.9922087 26.075"></polygon>
      <path d="M79.1512195,43.4583333 C78.1278243,43.7638352 77.0657905,43.91996 75.9978997,43.9218889 C73.7992547,43.9218889 72.5842141,42.8209444 72.5842141,40.7639167 C72.5545926,40.3298396 72.5545926,39.8942438 72.5842141,39.4601667 L72.8445799,38.0115556 L73.0470867,36.9106111 L75.2168022,26.075 L79.5273035,26.075 L78.9197832,29.3488611 L81.00271,29.3488611 L80.3951897,32.8545 L78.1097561,32.8545 L77.0104336,38.8807222 C76.9920655,39.0831107 76.9920655,39.2867505 77.0104336,39.4891389 C77.0104336,40.2424167 77.5022358,40.5900833 78.5147696,40.5900833 C78.8991686,40.6354198 79.2875523,40.6354198 79.6719512,40.5900833 L79.1512195,43.4583333 Z" id="Shape" fill="#FFFFFF"></path>
      <path d="M91.7934282,29.3778333 C91.6313878,29.342543 91.4636664,29.342543 91.301626,29.3778333 L90.9544715,29.3778333 L90.4626694,29.3778333 C88.8897505,29.4358476 87.4623687,30.3155325 86.7018293,31.6956111 L87.1068428,29.4937222 L83.1724255,29.4937222 L80.5109079,43.9798333 L84.8792683,43.9798333 C86.4414634,35.1433056 87.0779133,33.5788056 89.1897696,33.5788056 L89.7394309,33.5788056 L90.2312331,33.5788056 L91.7934282,29.3778333 Z" id="Shape" fill="#FFFFFF"></path>
      <path d="M61.9092141,33.8395556 C61.9092141,35.6358333 62.921748,36.9106111 65.2650407,37.80875 C67.0586721,38.5620278 67.3190379,38.7648333 67.3190379,39.4601667 C67.3190379,40.1555 66.5090108,40.7639167 64.802168,40.7639167 C63.4297071,40.7601701 62.0651893,40.5551904 60.7520325,40.1555 L60.2602304,43.4583333 L60.4627371,43.4583333 L61.2149051,43.6611389 L62.3720867,43.6611389 C63.1908011,43.7172032 64.0123831,43.7172032 64.8310976,43.6611389 C69.4019648,43.6611389 71.6006098,42.1545833 71.6006098,38.8807222 C71.6006098,36.8816389 70.703794,35.72275 68.44729,34.8535833 C66.1907859,33.9844167 66.5379404,34.1872222 66.5379404,33.4918889 C66.5379404,32.7965556 67.2901084,32.333 68.7365854,32.333 C69.7906327,32.3420222 70.843364,32.4097285 71.8899051,32.5358056 L72.3238482,29.2619444 C71.069246,29.073749 69.8026675,28.976921 68.5340786,28.9722222 C63.6160569,28.9722222 61.9092141,31.1741111 61.9092141,33.8395556 L61.9092141,33.8395556 Z" id="Shape" fill="#FFFFFF"></path>
      <path d="M44.6672087,43.6901111 L41.1088753,43.6901111 L41.1088753,42.1835556 C39.900696,43.3837015 38.2359471,44.0062654 36.5380081,43.8929167 C35.4803387,43.9508846 34.4472991,43.5594783 33.6928078,42.8149045 C32.9383164,42.0703307 32.5323381,41.0416345 32.5746612,39.9816667 C32.5746612,36.4760278 35.4676152,34.419 40.2409892,34.419 C40.8288228,34.3882652 41.4178574,34.3882652 42.0056911,34.419 C42.0553238,34.1216835 42.0553238,33.8181776 42.0056911,33.5208611 C42.0056911,32.5647778 41.253523,32.2171111 39.1127371,32.2171111 C37.9181421,32.2164888 36.7263525,32.3329325 35.5544038,32.5647778 L34.9468835,32.7675833 L34.5418699,32.7675833 L35.1493902,29.5516667 C36.8985659,29.1145488 38.699311,28.9195864 40.501355,28.9722222 C44.2621951,28.9722222 46.2872629,30.4208333 46.2872629,33.1442222 C46.2636409,34.1188097 46.147398,35.0889296 45.9401084,36.0414444 L45.0432927,41.1695278 L45.0432927,42.0676667 L45.0432927,42.8209444 L45.0432927,43.2845 L44.6672087,43.6901111 Z M41.5138889,37.2582778 C41.1962073,37.2319406 40.8768957,37.2319406 40.5592141,37.2582778 C38.1002033,37.2582778 36.8562331,38.0115556 36.8562331,39.4601667 C36.8204671,39.8696651 36.9674315,40.2740303 37.257668,40.564695 C37.5479045,40.8553598 37.9516739,41.0025409 38.3605691,40.9667222 C39.2619528,40.9150008 40.1045019,40.5017154 40.6978837,39.8202278 C41.2912654,39.1387402 41.5854168,38.2465466 41.5138889,37.3451944 L41.5138889,37.2582778 Z" id="Shape" fill="#FFFFFF"></path>
      <path d="M58.9584011,43.4583333 C57.5079092,43.8631937 56.0090258,44.0678885 54.503252,44.06675 C49.6430894,44.06675 47.1262195,41.8069167 47.1262195,37.548 C46.8998897,35.3660632 47.5919517,33.1883938 49.0359249,31.5388458 C50.4798982,29.8892978 52.5450845,28.9171767 54.7346883,28.8563333 C56.2149545,28.6810869 57.6988376,29.1531441 58.806772,30.1517562 C59.9147064,31.1503684 60.5392306,32.5786775 60.5205962,34.0713333 C60.5148996,35.2833907 60.3594268,36.4900822 60.0577236,37.6638889 L51.3788618,37.6638889 L51.3788618,38.1564167 C51.3788618,39.8078333 52.622832,40.677 55.1397019,40.677 C56.6889034,40.6831811 58.2235726,40.3777648 59.65271,39.7788611 L58.9584011,43.4583333 Z M56.6440379,34.7666667 L56.6440379,34.0133889 C56.6440379,32.8545 55.8918699,32.1591667 54.5900407,32.1591667 C53.2882114,32.1591667 52.2756775,33.11525 51.8417344,34.7666667 L56.6440379,34.7666667 Z" id="Shape" fill="#FFFFFF"></path>
      <path d="M105.332453,37.1134167 C105.135497,39.1616223 104.128835,41.0458909 102.536688,42.3465202 C100.944542,43.6471495 98.8991479,44.2561158 96.8560976,44.0377778 C95.0237804,44.2539679 93.1916352,43.6325792 91.8675413,42.3458637 C90.5434474,41.0591481 89.8681065,39.2438355 90.0287263,37.4031389 C89.8437695,35.0460424 90.698566,32.726015 92.3679604,31.0541576 C94.0373547,29.3823003 96.3539641,28.5262426 98.7075881,28.7114722 C100.520814,28.524782 102.325536,29.1365811 103.652724,30.3878694 C104.979912,31.6391576 105.698505,33.4063683 105.621748,35.2302222 C105.69413,35.8267875 105.69413,36.4299347 105.621748,37.0265 L105.332453,37.1134167 Z M100.819444,35.2591944 C100.819444,33.7526389 100.211924,32.3619722 98.4182927,32.3619722 C96.6246612,32.3619722 94.8599593,34.9694722 94.8599593,37.28725 C94.8599593,39.6050278 95.8146341,40.5031667 97.3189702,40.5031667 C99.05842,40.1503798 100.396205,38.7528729 100.674797,36.9975278 C100.746337,36.4009118 100.746337,35.797866 100.674797,35.20125 L100.819444,35.2591944 Z" id="Shape" fill="#FFFFFF"></path>
    </g>
  </g>
</svg>
